<?xml version="1.0" standalone="no"?>
<!DOCTYPE svg PUBLIC "-//W3C//DTD SVG 20010904//EN"
 "http://www.w3.org/TR/2001/REC-SVG-20010904/DTD/svg10.dtd">
<svg version="1.0" xmlns="http://www.w3.org/2000/svg"
 width="70.000000pt" height="70.000000pt" viewBox="0 0 70.000000 70.000000"
 preserveAspectRatio="xMidYMid meet">
<metadata>
Created by potrace 1.14, written by Peter Selinger 2001-2017
</metadata>
<g transform="translate(0.000000,70.000000) scale(0.100000,-0.100000)"
fill="#000000" stroke="none">
<path d="M190 566 l-145 -52 -3 -197 -2 -197 307 2 308 3 3 186 c2 141 -1 189
-10 197 -14 11 -291 113 -305 111 -4 0 -73 -24 -153 -53z m305 -24 l130 -48 3
-172 2 -172 -280 0 -280 0 0 170 c0 197 -20 168 151 230 57 21 113 38 124 39
11 0 78 -21 150 -47z"/>
<path d="M186 424 c-14 -21 -27 -31 -31 -25 -3 6 -19 11 -36 11 -22 0 -29 -5
-29 -20 0 -11 6 -23 13 -26 10 -3 12 -28 9 -99 l-4 -95 51 0 c44 0 51 3 51 20
0 19 7 20 140 20 133 0 140 -1 140 -20 0 -17 7 -20 51 -20 l51 0 -4 93 c-4 74
-2 94 10 103 9 6 13 18 9 28 -7 18 -47 22 -64 5 -7 -7 -17 0 -33 25 l-22 36
-138 0 -139 0 -25 -36z m292 -21 l14 -23 -141 0 c-77 0 -141 2 -141 5 0 3 6
14 13 25 11 19 21 20 126 18 105 -3 115 -5 129 -25z m-318 -164 c0 -5 -4 -9
-10 -9 -5 0 -10 7 -10 16 0 8 5 12 10 9 6 -3 10 -10 10 -16z m395 12 c3 -5 1
-12 -5 -16 -5 -3 -10 1 -10 9 0 18 6 21 15 7z"/>
</g>
</svg>
